<svg width="47" height="48" viewBox="0 0 47 48" fill="none" xmlns="http://www.w3.org/2000/svg">
<path fill-rule="evenodd" clip-rule="evenodd" d="M23.5 4.7729C20.2118 4.77229 16.9809 5.64751 14.1299 7.3112C11.2789 8.97489 8.90738 11.3689 7.25216 14.2542C5.59693 17.1395 4.71586 20.4152 4.69689 23.7543C4.67791 27.0935 5.5217 30.3793 7.14402 33.2838C8.24055 31.8366 9.65013 30.6649 11.2638 29.8592C12.8774 29.0535 14.6519 28.6355 16.45 28.6374H30.55C32.3481 28.6355 34.1226 29.0535 35.7362 29.8592C37.3499 30.6649 38.7594 31.8366 39.856 33.2838C41.4783 30.3793 42.3221 27.0935 42.3031 23.7543C42.2841 20.4152 41.4031 17.1395 39.7478 14.2542C38.0926 11.3689 35.7211 8.97489 32.8701 7.3112C30.0191 5.64751 26.7882 4.77229 23.5 4.7729ZM42.166 38.3646C45.308 34.2049 47.0076 29.107 47 23.8645C47 10.6841 36.479 0 23.5 0C10.521 0 2.64451e-05 10.6841 2.64451e-05 23.8645C-0.00773192 29.107 1.6918 34.205 4.83397 38.3646L4.82222 38.4075L5.65647 39.3931C7.8605 42.0099 10.5971 44.1102 13.6776 45.5493C16.758 46.9884 20.1092 47.7321 23.5 47.729C28.2642 47.7379 32.9174 46.2683 36.8362 43.5169C38.5069 42.3447 40.0218 40.9587 41.3435 39.3931L42.1778 38.4075L42.166 38.3646ZM23.5 9.5458C21.6302 9.5458 19.837 10.3001 18.5149 11.6427C17.1928 12.9854 16.45 14.8064 16.45 16.7052C16.45 18.6039 17.1928 20.4249 18.5149 21.7676C19.837 23.1102 21.6302 23.8645 23.5 23.8645C25.3698 23.8645 27.163 23.1102 28.4851 21.7676C29.8072 20.4249 30.55 18.6039 30.55 16.7052C30.55 14.8064 29.8072 12.9854 28.4851 11.6427C27.163 10.3001 25.3698 9.5458 23.5 9.5458Z" fill="white"/>
</svg>
