<svg width="49" height="49" viewBox="0 0 49 49" fill="none" xmlns="http://www.w3.org/2000/svg">
<path d="M39.2 39.2C40.4996 39.2 41.7459 39.7163 42.6648 40.6352C43.5838 41.5541 44.1 42.8004 44.1 44.1C44.1 45.3996 43.5838 46.6459 42.6648 47.5648C41.7459 48.4838 40.4996 49 39.2 49C37.9004 49 36.6541 48.4838 35.7352 47.5648C34.8162 46.6459 34.3 45.3996 34.3 44.1C34.3 41.3805 36.4805 39.2 39.2 39.2ZM0 0H8.0115L10.3145 4.9H46.55C47.1998 4.9 47.8229 5.15812 48.2824 5.61759C48.7419 6.07705 49 6.70022 49 7.35C49 7.7665 48.8775 8.183 48.706 8.575L39.935 24.4265C39.102 25.921 37.485 26.95 35.6475 26.95H17.395L15.19 30.9435L15.1165 31.2375C15.1165 31.3999 15.181 31.5557 15.2959 31.6706C15.4108 31.7855 15.5666 31.85 15.729 31.85H44.1V36.75H14.7C13.4004 36.75 12.1541 36.2337 11.2352 35.3148C10.3162 34.3959 9.8 33.1496 9.8 31.85C9.8 30.9925 10.0205 30.184 10.388 29.498L13.72 23.4955L4.9 4.9H0V0ZM14.7 39.2C15.9996 39.2 17.2459 39.7163 18.1648 40.6352C19.0838 41.5541 19.6 42.8004 19.6 44.1C19.6 45.3996 19.0838 46.6459 18.1648 47.5648C17.2459 48.4838 15.9996 49 14.7 49C13.4004 49 12.1541 48.4838 11.2352 47.5648C10.3162 46.6459 9.8 45.3996 9.8 44.1C9.8 41.3805 11.9805 39.2 14.7 39.2ZM36.75 22.05L43.561 9.8H12.593L18.375 22.05H36.75Z" fill="white"/>
</svg>
