<svg width="45" height="45" viewBox="0 0 45 45" fill="none" xmlns="http://www.w3.org/2000/svg">
<path d="M22.5 0C18.0499 0 13.6998 1.3196 9.99968 3.79193C6.29957 6.26426 3.41569 9.77828 1.71272 13.8896C0.0097489 18.001 -0.435826 22.525 0.432341 26.8895C1.30051 31.2541 3.44342 35.2632 6.59011 38.4099C9.73679 41.5566 13.7459 43.6995 18.1105 44.5677C22.475 45.4358 26.999 44.9902 31.1104 43.2873C35.2217 41.5843 38.7357 38.7004 41.2081 35.0003C43.6804 31.3002 45 26.9501 45 22.5C44.9937 16.5346 42.6211 10.8153 38.4029 6.59705C34.1847 2.37885 28.4654 0.00629961 22.5 0ZM16.795 31.1538H28.205C27.0433 35.1216 25.0962 38.6978 22.5 41.5147C19.9039 38.6978 17.9567 35.1216 16.795 31.1538ZM16.0096 27.6923C15.4356 24.2546 15.4356 20.7454 16.0096 17.3077H28.9904C29.5644 20.7454 29.5644 24.2546 28.9904 27.6923H16.0096ZM3.46155 22.5C3.46004 20.7442 3.7025 18.9967 4.18198 17.3077H12.5027C11.9863 20.75 11.9863 24.25 12.5027 27.6923H4.18198C3.7025 26.0033 3.46004 24.2558 3.46155 22.5ZM28.205 13.8462H16.795C17.9567 9.87836 19.9039 6.30216 22.5 3.48534C25.0962 6.30216 27.0433 9.87836 28.205 13.8462ZM32.4974 17.3077H40.818C41.7786 20.7026 41.7786 24.2974 40.818 27.6923H32.4974C33.0137 24.25 33.0137 20.75 32.4974 17.3077ZM39.455 13.8462H31.7899C30.9066 10.3706 29.4233 7.07591 27.4067 4.11058C29.9831 4.80293 32.386 6.0268 34.461 7.7035C36.536 9.3802 38.2372 11.4726 39.455 13.8462ZM17.5933 4.11058C15.5767 7.07591 14.0934 10.3706 13.2101 13.8462H5.54496C6.76283 11.4726 8.46397 9.3802 10.539 7.7035C12.614 6.0268 15.0169 4.80293 17.5933 4.11058ZM5.54496 31.1538H13.2101C14.0934 34.6294 15.5767 37.9241 17.5933 40.8894C15.0169 40.1971 12.614 38.9732 10.539 37.2965C8.46397 35.6198 6.76283 33.5274 5.54496 31.1538ZM27.4067 40.8894C29.4233 37.9241 30.9066 34.6294 31.7899 31.1538H39.455C38.2372 33.5274 36.536 35.6198 34.461 37.2965C32.386 38.9732 29.9831 40.1971 27.4067 40.8894Z" fill="white"/>
</svg>
