<svg width="50" height="50" viewBox="0 0 50 50" fill="none" xmlns="http://www.w3.org/2000/svg">
<path fill-rule="evenodd" clip-rule="evenodd" d="M31.4732 34.5176C27.6039 37.6094 22.6978 39.1022 17.7623 38.6894C12.8269 38.2766 8.23682 35.9895 4.93488 32.298C1.63293 28.6064 -0.130232 23.7905 0.00750223 18.8395C0.145237 13.8885 2.17342 9.17808 5.67548 5.67581C9.17755 2.17354 13.8877 0.145245 18.8384 0.00750266C23.7892 -0.13024 28.6048 1.63303 32.2961 4.93516C35.9875 8.23729 38.2744 12.8276 38.6872 17.7633C39.1 22.6991 37.6073 27.6055 34.5157 31.475L49.3148 46.2721C49.5263 46.4692 49.696 46.7069 49.8136 46.971C49.9313 47.235 49.9946 47.5201 49.9997 47.8092C50.0048 48.0982 49.9516 48.3854 49.8433 48.6534C49.7351 48.9215 49.5739 49.165 49.3695 49.3694C49.1651 49.5739 48.9216 49.735 48.6535 49.8433C48.3855 49.9516 48.0984 50.0048 47.8093 49.9997C47.5203 49.9946 47.2352 49.9313 46.9711 49.8136C46.7071 49.696 46.4694 49.5263 46.2723 49.3148L31.4732 34.5176ZM8.72615 30.034C6.61948 27.927 5.18466 25.2427 4.60302 22.3204C4.02138 19.3982 4.31904 16.369 5.45836 13.6159C6.59769 10.8627 8.52755 8.50913 11.004 6.85253C13.4805 5.19594 16.3925 4.3107 19.3719 4.30869C22.3514 4.30669 25.2645 5.18801 27.7433 6.84127C30.222 8.49453 32.155 10.8455 33.298 13.5971C34.4411 16.3488 34.7428 19.3775 34.1651 22.3005C33.5874 25.2236 32.1562 27.9098 30.0524 30.0196L30.038 30.034L30.0237 30.0455C27.1967 32.866 23.3658 34.4491 19.3725 34.447C15.3792 34.4448 11.5501 32.8576 8.72615 30.034Z" fill="white"/>
</svg>
